<svg xmlns="http://www.w3.org/2000/svg" xmlns:ns1="http://sozi.baierouge.fr" xmlns:svg="http://www.w3.org/2000/svg" xmlns:xlink="http://www.w3.org/1999/xlink" id="svg2" version="1.0" viewBox="0 0 30 30"><g id="layer1"><rect id="rect3465" width="6" height="0" x="16" y="12.5" ry="0" style="fill:#427bc3"/><g id="g2525"><path id="rect3236" d="m8 2h7v25h-7v-25z" style="fill:#4e9a06"/><path id="rect3238" d="m15 9h7v18h-7v-18z" style="fill:#f57900"/><path id="rect3240" d="m22 18h7v9h-7v-9z" style="fill:#c00"/><path id="rect3242" d="m9 3h5v24h-5v-24z" style="fill:#8ae234"/><path id="rect3244" d="m16 10h5v17h-5v-17z" style="fill:#fcaf3e"/><path id="rect3246" d="m23 19h5v8h-5v-8z" style="fill:#ef2929"/><path id="rect3248" d="m1 13h7v14h-7v-14z" style="fill:#204a87"/><path id="rect3250" d="m2 14h5v13h-5v-13z" style="fill:#729fcf"/><path id="rect3252" d="m0.5 27h29c0.277 0 0.5 0.223 0.5 0.5s-0.223 0.5-0.5 0.5h-29c-0.277 0-0.5-0.223-0.5-0.5s0.223-0.5 0.5-0.5z" style="fill:#555753"/></g></g><metadata/></svg>